HIERARCHY
ROOT Hips
{
	OFFSET 0.000000 0.000000 0.000000
	CHANNELS 6 Xposition Yposition Zposition Zrotation Yrotation Xrotation 
	JOINT LHipJoint
	{
		OFFSET 0.000000 0.000000 0.000000
		CHANNELS 3 Zrotation Yrotation Xrotation
		JOINT LeftUpLeg
		{
			OFFSET 8.178360 -10.767780 5.035740
			CHANNELS 3 Zrotation Yrotation Xrotation
			JOINT LeftLeg
			{
				OFFSET 14.688660 -40.356780 0.000000
				CHANNELS 3 Zrotation Yrotation Xrotation
				JOINT LeftFoot
				{
					OFFSET 15.373200 -42.237540 0.000000
					CHANNELS 3 Zrotation Yrotation Xrotation
					JOINT LeftToeBase
					{
						OFFSET 0.945840 -2.598660 13.935300
						CHANNELS 3 Zrotation Yrotation Xrotation
						End Site
						{
							OFFSET 0.000000 0.000000 0.000000
						}
					}
				}
			}
		}
	}
	JOINT RHipJoint
	{
		OFFSET 0.000000 0.000000 0.000000
		CHANNELS 3 Zrotation Yrotation Xrotation
		JOINT RightUpLeg
		{
			OFFSET -7.833120 -10.767780 5.035740
			CHANNELS 3 Zrotation Yrotation Xrotation
			JOINT RightLeg
			{
				OFFSET -15.255180 -41.913300 0.000000
				CHANNELS 3 Zrotation Yrotation Xrotation
				JOINT RightFoot
				{
					OFFSET -15.409560 -42.337380 0.000000
					CHANNELS 3 Zrotation Yrotation Xrotation
					JOINT RightToeBase
					{
						OFFSET -0.988380 -2.715540 14.178900
						CHANNELS 3 Zrotation Yrotation Xrotation
						End Site
						{
							OFFSET 0.000000 0.000000 0.000000
						}
					}
				}
			}
		}
	}
	JOINT LowerBack
	{
		OFFSET 0.000000 0.000000 0.000000
		CHANNELS 3 Zrotation Yrotation Xrotation
		JOINT Spine
		{
			OFFSET 0.169620 12.213540 -1.160280
			CHANNELS 3 Zrotation Yrotation Xrotation
			JOINT Spine1
			{
				OFFSET 0.340320 12.293100 -0.256500
				CHANNELS 3 Zrotation Yrotation Xrotation
				JOINT Neck
				{
					OFFSET 0.000000 0.000000 0.000000
					CHANNELS 3 Zrotation Yrotation Xrotation
					JOINT Neck1
					{
						OFFSET -0.325020 10.477440 1.032120
						CHANNELS 3 Zrotation Yrotation Xrotation
						JOINT Head
						{
							OFFSET 0.624420 10.568160 -0.743820
							CHANNELS 3 Zrotation Yrotation Xrotation
							End Site
							{
								OFFSET 0.000000 0.000000 0.000000
							}
						}
					}
				}
				JOINT LeftShoulder
				{
					OFFSET 0.000000 0.000000 0.000000
					CHANNELS 3 Zrotation Yrotation Xrotation
					JOINT LeftArm
					{
						OFFSET 20.174460 7.205340 -1.867260
						CHANNELS 3 Zrotation Yrotation Xrotation
						JOINT LeftForeArm
						{
							OFFSET 29.898000 -0.000000 -0.000000
							CHANNELS 3 Zrotation Yrotation Xrotation
							JOINT LeftHand
							{
								OFFSET 20.901360 -0.000000 -0.000000
								CHANNELS 3 Zrotation Yrotation Xrotation
								JOINT LeftFingerBase
								{
									OFFSET 0.000000 0.000000 0.000000
									CHANNELS 3 Zrotation Yrotation Xrotation
									JOINT LeftHandIndex1
									{
										OFFSET 4.291560 -0.000000 -0.000000
										CHANNELS 3 Zrotation Yrotation Xrotation
										End Site
										{
											OFFSET 0.000000 0.000000 0.000000
										}
									}
								}
								JOINT LThumb
								{
									OFFSET 0.000000 0.000000 0.000000
									CHANNELS 3 Zrotation Yrotation Xrotation
									End Site
									{
										OFFSET 0.000000 0.000000 0.000000
									}
								}
							}
						}
					}
				}
				JOINT RightShoulder
				{
					OFFSET 0.000000 0.000000 0.000000
					CHANNELS 3 Zrotation Yrotation Xrotation
					JOINT RightArm
					{
						OFFSET -18.819600 8.244300 -2.427900
						CHANNELS 3 Zrotation Yrotation Xrotation
						JOINT RightForeArm
						{
							OFFSET -31.451400 -0.000000 -0.000000
							CHANNELS 3 Zrotation Yrotation Xrotation
							JOINT RightHand
							{
								OFFSET -20.665020 -0.000000 -0.000000
								CHANNELS 3 Zrotation Yrotation Xrotation
								JOINT RightFingerBase
								{
									OFFSET 0.000000 0.000000 0.000000
									CHANNELS 3 Zrotation Yrotation Xrotation
									JOINT RightHandIndex1
									{
										OFFSET -3.735180 -0.000000 -0.000000
										CHANNELS 3 Zrotation Yrotation Xrotation
										End Site
										{
											OFFSET 0.000000 0.000000 0.000000
										}
									}
								}
								JOINT RThumb
								{
									OFFSET 0.000000 0.000000 0.000000
									CHANNELS 3 Zrotation Yrotation Xrotation
									End Site
									{
										OFFSET 0.000000 0.000000 0.000000
									}
								}
							}
						}
					}
				}
			}
		}
	}
}
MOTION
Frames:	12
Frame Time:	0.0333333
192.813342 115.000722 17.027418 -173.561528 34.447585 -171.280908 -8.072307 1.362278 6.131120 9.590735 -5.393244 -11.398701 1.558882 8.730465 19.275052 -10.027912 29.073771 23.842198 0.203300 2.903300 8.009700 9.827012 2.181590 -2.200540 -2.283453 -12.138702 -28.669971 -1.655892 -9.040185 11.517667 17.340095 -42.857403 23.654867 -0.004800 -0.448600 1.232500 -5.370703 0.515435 3.277385 -3.099361 2.416926 -6.505829 -3.239976 1.241054 -13.367877 -2.131582 -14.864304 -9.469709 2.147472 -18.159242 -13.945951 2.460200 -8.845200 1.962900 3.916215 -4.838054 2.122797 16.858065 4.061170 3.635215 6.575480 -8.906018 -3.516829 2.062907 -3.932956 3.106059 -2.116643 3.463566 -0.556900 -7.125000 0.000000 0.000000 -25.732800 36.071900 6.166900 -4.716710 4.278309 4.612318 -32.616880 1.226497 -42.333333 -51.682699 44.986293 -56.694109 4.277210 8.383584 -34.122606 -36.731574 28.242800 -19.719400 7.125000 0.000000 0.000000 -10.535700 -2.250900 -10.291300 
196.500588 115.249974 18.161958 -174.156615 36.752980 -171.945406 -9.039786 0.244388 6.456916 6.881096 -0.967188 -12.877551 1.743989 9.341848 22.236501 -8.630494 25.811115 22.556706 0.013100 0.739600 2.032400 9.899828 2.831105 -2.373044 -0.504659 -14.233807 -30.438911 -1.943296 -9.589726 13.693036 15.179862 -40.043092 25.647584 -0.010400 0.659800 -1.813300 -6.540518 1.132888 3.645386 -3.243591 2.843430 -6.648202 -2.671446 1.643186 -14.325926 -2.676712 -14.386770 -8.786192 1.733387 -17.406608 -14.800143 2.410700 -8.425700 1.694500 3.310749 -4.923856 2.047174 16.733610 4.686470 4.488475 6.653212 -8.694796 -3.360710 1.955105 -3.764607 4.567379 -2.093396 3.283426 -0.520800 -7.125000 0.000000 0.000000 -25.573800 35.715200 6.368200 -3.621160 4.567308 2.541748 -29.057512 0.353303 -38.826066 -59.124884 51.931000 -67.017054 3.603744 7.175376 -20.963319 -43.783189 34.431094 -26.547700 7.125000 0.000000 0.000000 -12.404900 4.613100 -13.675900 
199.268946 115.410156 19.311336 -173.863325 38.861640 -172.541210 -9.780217 -1.814090 5.940155 1.948838 7.868101 -17.506003 2.476629 10.739004 28.016802 -5.285163 19.032417 21.102601 0.015000 -0.789600 -2.170200 10.413426 3.623344 -2.111247 0.770466 -14.966738 -31.083963 -2.052295 -9.782757 15.483128 13.752453 -37.400259 26.253945 -0.043500 1.346200 -3.701800 -6.403600 1.914928 4.953914 -3.269625 3.267855 -6.729671 -2.203319 2.072465 -15.266248 -3.239491 -14.020159 -8.256776 1.303430 -16.818403 -15.534752 2.320900 -8.080300 1.446000 2.387056 -4.995071 1.907743 16.211199 5.303711 4.615289 6.474827 -8.509126 -3.124120 2.023048 -3.696460 5.456456 -2.363114 3.258110 -0.556200 -7.125000 0.000000 0.000000 -25.829900 35.565400 6.549000 -2.215814 4.994913 0.592765 -24.712446 -0.536448 -31.567361 -64.375546 57.522855 -74.342396 2.527993 6.236831 -7.781921 -49.755514 38.764087 -32.191900 7.125000 0.000000 0.000000 -13.432800 10.164900 -15.998200 
201.615378 115.229658 20.380242 -170.883297 39.293890 -171.191213 -9.771324 -3.602321 4.586412 -2.445823 15.241868 -23.225412 3.539613 11.888857 32.530273 -4.245568 16.132089 18.568438 0.006500 0.519500 1.427500 11.435142 4.687403 -1.595942 3.333121 -16.145140 -32.095968 -2.039966 -10.030947 17.594833 13.625252 -35.702853 24.405505 -0.059900 1.579300 -4.344300 -3.993607 2.238189 5.958351 -3.100066 3.498115 -6.744545 -1.536811 2.177678 -15.289819 -3.622719 -13.721240 -8.314484 1.079316 -16.385344 -15.657853 2.198200 -7.832100 1.342100 1.509761 -4.704328 1.627667 15.539087 5.690855 6.755982 6.235905 -8.389627 -2.871601 2.315996 -3.686269 4.668187 -2.898154 3.319561 -0.653800 -7.125000 0.000000 0.000000 -26.444200 35.562100 6.738500 -0.563195 4.815972 -0.350582 -20.177920 -2.332265 -20.304024 -65.684495 59.474013 -77.790931 2.256846 5.747581 3.050075 -53.862642 41.549143 -36.791100 7.125000 0.000000 0.000000 -14.155300 14.538400 -17.724400 
203.678952 114.838200 21.233484 -168.035641 38.506890 -169.701863 -9.839509 -4.650039 3.566504 -4.669654 17.609580 -26.277499 3.936970 12.248627 33.797409 -7.303497 19.631223 12.157957 0.969200 6.267800 17.563600 11.996279 5.487953 -1.184740 6.414020 -18.502045 -33.850984 -2.162688 -10.392344 19.769553 13.475924 -34.302283 22.615540 -0.083800 1.867000 -5.138300 -1.799249 2.170440 6.448864 -2.832559 3.377299 -6.727567 -0.064353 2.140218 -14.390560 -4.073564 -13.314305 -8.795692 0.941874 -15.916325 -14.997941 2.083800 -7.613300 1.395700 0.813979 -3.981323 1.184465 14.897844 5.728190 11.105601 6.086573 -8.411646 -2.654306 2.480787 -3.925451 3.459412 -3.243897 3.752145 -0.781700 -7.125000 0.000000 0.000000 -27.015800 36.170100 6.465200 1.104961 3.868877 0.224542 -15.827180 -4.060446 -6.990194 -62.463116 56.667842 -76.588339 3.234346 4.875261 11.508388 -56.096087 43.406703 -40.811600 7.125000 0.000000 0.000000 -14.706500 18.288500 -19.089300 
205.578438 114.535032 22.183620 -167.700366 37.537937 -169.583465 -9.950895 -4.855070 3.337026 -3.952074 15.798787 -25.496523 3.766523 12.194657 33.624255 -8.568496 21.083070 9.350429 1.609700 8.000800 22.716400 11.671544 5.773927 -1.194070 8.041428 -19.930101 -35.186863 -2.389941 -10.877847 21.941258 12.108848 -31.635533 22.448663 -0.156800 2.551400 -7.032300 -2.339127 2.032722 6.769482 -2.513795 2.862989 -6.697494 2.431098 2.151688 -13.232377 -4.500772 -12.690484 -9.345879 0.681900 -15.353846 -13.711605 1.842900 -7.407600 1.411900 0.239456 -3.252481 0.707095 14.365577 5.583219 14.095097 6.148236 -8.578116 -2.577094 2.392255 -4.052003 3.321544 -3.215637 3.951147 -0.800300 -7.125000 0.000000 0.000000 -27.034800 36.481600 6.240100 2.468608 2.677190 1.854952 -12.395970 -4.084163 5.132447 -54.716097 49.758388 -69.108755 4.426530 2.872014 19.193680 -58.006876 43.338790 -44.677300 7.125000 0.000000 0.000000 -15.533100 21.533000 -20.729700 
207.789690 114.173262 23.312688 -169.378391 36.901303 -170.735378 -9.777086 -4.662645 3.492318 -3.947216 17.087975 -25.695015 3.859837 11.985398 33.183737 -7.691906 20.207520 12.009586 0.773500 5.615500 15.672800 10.705323 5.841268 -1.534735 7.431755 -18.590760 -34.991383 -2.651356 -11.690076 25.243867 8.695754 -25.711757 23.416744 -0.391400 4.017000 -11.124500 -4.926134 1.960355 7.184110 -2.275689 2.250519 -6.695636 4.715344 2.227619 -12.201068 -4.920952 -12.017867 -9.746494 0.804774 -14.745312 -12.090841 1.653600 -7.208200 1.474200 -0.168014 -2.492002 0.239699 14.400712 5.072818 15.050049 6.891193 -9.117011 -2.592332 2.182669 -4.134437 3.361583 -2.951713 4.106050 -0.759300 -7.125000 0.000000 0.000000 -26.756900 36.741000 5.973300 3.473184 1.749647 3.561479 -10.420833 -2.827212 15.263830 -44.886099 41.082179 -56.314835 4.778317 0.100563 22.448811 -57.432825 39.723680 -44.827500 7.125000 0.000000 0.000000 -15.633000 21.599100 -20.880500 
210.123618 114.160758 24.288606 -171.944143 36.051042 -172.361397 -9.744596 -4.484533 3.752608 -4.974335 19.792755 -26.676907 3.792398 11.722252 32.587641 -6.235554 18.460146 14.665590 0.332800 3.707400 10.254800 9.675065 5.744423 -1.830069 4.030018 -13.394254 -32.225728 -2.837240 -12.766873 29.510887 3.136121 -16.058273 25.173590 -0.872400 5.955000 -16.653900 -7.061674 1.893276 7.505664 -2.225957 1.806631 -6.775760 5.145546 2.379401 -11.575284 -5.904282 -11.495983 -10.303038 0.796060 -14.313870 -9.767996 1.353300 -7.164200 2.081400 -0.626218 -1.826058 -0.160204 15.165069 3.839894 15.365199 8.541918 -10.075944 -2.578355 1.916994 -4.206077 3.487354 -2.582211 4.321021 -0.695600 -7.125000 0.000000 0.000000 -26.371600 37.057900 5.642800 4.348184 1.369054 4.332723 -9.946010 -1.364111 23.925754 -33.996321 32.403637 -40.458419 4.899144 -3.759069 21.112724 -54.250891 34.834830 -43.141900 7.125000 0.000000 0.000000 -14.539300 20.835300 -19.237600 
212.558334 113.879466 25.085598 -173.879775 33.628563 -173.462307 -9.654200 -4.376862 3.519720 -4.944043 20.114768 -26.743531 3.821559 11.815349 32.728117 -5.371365 17.306868 15.833659 0.096300 2.000900 5.508000 8.896382 5.443840 -1.808516 0.198726 -6.562335 -28.378805 -3.042237 -13.973263 34.206764 -2.688633 -4.934114 25.516851 -1.154500 6.822000 -19.189000 -7.196490 1.632144 7.864496 -2.184021 1.346420 -6.949045 3.723529 2.507423 -11.760790 -7.702137 -11.023559 -10.481645 0.650049 -13.874629 -6.984472 0.857300 -7.141300 2.761100 -1.278005 -1.387838 -0.401268 16.508888 1.546909 15.795416 11.059490 -11.531234 -2.561291 2.025840 -4.078417 3.547957 -2.699770 4.283203 -0.713200 -7.125000 0.000000 0.000000 -26.487300 36.883400 5.798300 5.270499 1.739799 3.362158 -10.522892 -0.863874 29.581341 -22.055603 25.468836 -24.910731 6.494298 -8.467323 19.802086 -47.557523 29.163323 -38.560300 7.125000 0.000000 0.000000 -13.072900 17.388700 -16.741300 
215.389206 113.301258 25.706778 -174.760830 29.115115 -173.470166 -9.292817 -4.313503 2.448915 -3.496345 18.531566 -26.401676 4.118599 12.375007 33.871696 -4.362277 15.766526 16.524390 0.001400 0.241700 0.664000 9.048468 4.965635 -1.093299 -2.613857 -0.561618 -23.902927 -1.888943 -13.296977 33.127465 -6.390460 1.795755 27.977387 -0.777400 5.629300 -15.712500 -5.718328 0.860325 7.737184 -2.136564 0.534893 -7.235994 1.402963 2.447051 -11.815127 -10.132865 -10.608297 -10.767369 1.155619 -13.358889 -4.145952 0.411500 -7.033800 3.256900 -2.113731 -0.663518 -0.461224 18.648321 -1.743945 16.106497 14.122389 -12.461813 -2.576729 2.007463 -3.842137 4.071518 -2.620126 4.237310 -0.676200 -7.125000 0.000000 0.000000 -26.327900 36.619000 5.945800 6.324375 2.316293 1.805631 -10.947009 -1.351288 31.698683 -12.792698 19.232721 -13.588303 7.804212 -12.088544 20.685694 -38.464083 24.267262 -31.050900 7.125000 0.000000 0.000000 -10.324900 11.703300 -12.385400 
218.352912 112.574592 26.067768 -175.085819 23.613274 -172.711720 -8.659418 -4.289643 0.919605 -1.762558 16.776480 -26.824344 4.570629 13.295127 35.877205 -2.033627 12.011916 17.626043 0.001600 -0.256900 -0.706000 9.747043 4.371835 0.095418 -3.688677 2.626441 -20.324962 -0.531109 -11.344891 28.195806 -5.858350 -0.515148 29.866488 -0.614100 5.015400 -13.952400 -3.608367 -0.359709 6.993661 -2.285139 -0.482853 -7.709539 -1.002319 2.323305 -11.354570 -12.383615 -10.240305 -11.592718 2.167134 -12.807877 -1.431227 -0.005500 -6.887500 3.940900 -2.963777 0.373220 -0.067313 21.659470 -4.729064 17.827083 16.791637 -11.460911 -2.607649 2.091697 -3.462032 3.742114 -2.632867 4.096278 -0.639100 -7.125000 0.000000 0.000000 -26.203300 36.153700 6.243500 7.141456 2.480842 0.571851 -10.821966 -2.055830 30.342555 -6.912028 13.895777 -6.830592 6.893625 -13.034665 23.094778 -29.468316 20.265175 -22.094400 7.125000 0.000000 0.000000 -6.069700 4.840600 -6.596000 
220.754814 112.026078 26.613942 -174.604573 18.934075 -172.093311 -7.620688 -4.326334 -0.516237 -0.559389 16.289721 -28.538315 5.459759 14.376218 38.751541 -0.182032 8.795833 19.318315 0.002500 -0.321200 -0.882600 9.835578 4.545179 0.499805 -1.605768 -0.318676 -20.987890 -0.955679 -11.283752 28.200393 -2.965361 -5.609982 28.202325 -0.953500 6.218200 -17.418900 -0.975031 -1.653543 7.807254 -2.725438 -1.258094 -8.376257 -3.231346 2.260953 -11.912201 -12.794536 -9.521129 -12.035518 2.710501 -12.124227 0.106711 -0.630000 -6.654900 4.156800 -3.797714 1.374239 0.750136 24.640431 -6.120337 17.308343 17.972925 -10.114238 -2.620587 1.892386 -3.176303 4.283947 -2.392344 4.008672 -0.553700 -7.125000 0.000000 0.000000 -25.754100 35.843400 6.332300 6.962336 1.667881 -0.415223 -9.671835 -1.212910 26.426716 -2.513821 11.590858 -3.237215 5.010922 -10.874218 23.889576 -20.839701 15.928533 -12.689200 7.125000 0.000000 0.000000 -0.478000 -3.805000 -0.445300 
